<svg width="13" height="15" viewBox="0 0 13 15" fill="none" xmlns="http://www.w3.org/2000/svg">
<path d="M10.6904 8.25014C10.7139 8.20329 10.7256 8.14474 10.7256 8.07448C10.7256 8.00422 10.7139 7.93006 10.6904 7.85199C10.667 7.82857 10.6514 7.80515 10.6436 7.78173C10.6357 7.7583 10.6201 7.73098 10.5967 7.69975L7.09277 4.2101C6.99121 4.10861 6.87402 4.05786 6.74121 4.05786C6.6084 4.05786 6.49121 4.10861 6.38965 4.2101C6.28809 4.31159 6.2373 4.42869 6.2373 4.5614C6.2373 4.69412 6.28809 4.81122 6.38965 4.91271L9.03809 7.55923H3.2373C3.08887 7.55923 2.96973 7.60412 2.87988 7.6939C2.79004 7.78368 2.74512 7.90273 2.74512 8.05106C2.74512 8.2072 2.79004 8.33016 2.87988 8.41993C2.96973 8.50971 3.08887 8.5546 3.2373 8.5546H9.03809L6.38965 11.2011C6.28809 11.3026 6.2373 11.4197 6.2373 11.5524C6.2373 11.6851 6.28809 11.8022 6.38965 11.9037C6.44434 11.9506 6.50488 11.9877 6.57129 12.015C6.6377 12.0423 6.69434 12.056 6.74121 12.056C6.78809 12.056 6.84473 12.0423 6.91113 12.015C6.97754 11.9877 7.03809 11.9506 7.09277 11.9037L10.5967 8.40237C10.6201 8.37895 10.6416 8.35553 10.6611 8.33211C10.6807 8.30869 10.6904 8.28136 10.6904 8.25014Z" fill="#141414"/>
</svg>
